<svg width="41" height="45" viewBox="0 0 41 45" fill="none" xmlns="http://www.w3.org/2000/svg">
<path d="M13.922 38.5264H27.0701C26.5398 41.6779 23.7983 44.0788 20.496 44.0788C17.1938 44.0788 14.4523 41.6779 13.922 38.5264ZM20.496 0.75C29.7009 0.75 37.163 8.21206 37.163 17.417V26.3027L40.3149 33.3253C40.4369 33.5971 40.5 33.8917 40.5 34.1897C40.5 35.3557 39.5548 36.3009 38.3888 36.3009H2.61167C2.31437 36.3009 2.02042 36.2381 1.74906 36.1166C0.684877 35.6402 0.208389 34.3913 0.684796 33.3271L3.82907 26.3035L3.82931 17.3883L3.83912 16.8329C4.14817 7.87555 11.5089 0.75 20.496 0.75Z" fill="#F59331"/>
</svg>
